<svg width="95" height="95" viewBox="0 0 95 95" fill="none" xmlns="http://www.w3.org/2000/svg">
<g filter="url(#filter0_d_1_46)">
<rect x="15" y="11" width="65" height="65" rx="15" fill="#FF8A00"/>
</g>
<g clip-path="url(#clip0_1_46)">
<path d="M64.375 30.375C62.2938 29.7188 60.0062 29.4375 57.8125 29.4375C54.1562 29.4375 50.2188 30.1875 47.5 32.25C44.7812 30.1875 40.8438 29.4375 37.1875 29.4375C33.5312 29.4375 29.5938 30.1875 26.875 32.25L26.875 59.7188C26.875 60.1875 27.3438 60.6563 27.8125 60.6563C28 60.6563 28.0938 60.5625 28.2813 60.5625C30.8125 59.3438 34.4688 58.5 37.1875 58.5C40.8438 58.5 44.7812 59.25 47.5 61.3125C50.0312 59.7188 54.625 58.5 57.8125 58.5C60.9063 58.5 64.0938 59.0625 66.7188 60.4688C66.9062 60.5625 67 60.5625 67.1875 60.5625C67.6562 60.5625 68.125 60.0938 68.125 59.625V32.25C67 31.4063 65.7812 30.8438 64.375 30.375ZM64.375 55.6875C62.3125 55.0313 60.0625 54.75 57.8125 54.75C54.625 54.75 50.0312 55.9688 47.5 57.5625V36C50.0312 34.4063 54.625 33.1875 57.8125 33.1875C60.0625 33.1875 62.3125 33.4688 64.375 34.125V55.6875Z" fill="white"/>
<path d="M57.8125 40.6875C59.4625 40.6875 61.0562 40.8563 62.5 41.175V38.325C61.0188 38.0437 59.425 37.875 57.8125 37.875C54.625 37.875 51.7375 38.4187 49.375 39.4312V42.5437C51.4938 41.3437 54.4375 40.6875 57.8125 40.6875Z" fill="white"/>
<path d="M49.375 44.4187V47.5312C51.4938 46.3312 54.4375 45.675 57.8125 45.675C59.4625 45.675 61.0562 45.8437 62.5 46.1625V43.3125C61.0188 43.0312 59.425 42.8625 57.8125 42.8625C54.625 42.8625 51.7375 43.425 49.375 44.4187Z" fill="white"/>
<path d="M57.8125 47.8687C54.625 47.8687 51.7375 48.4125 49.375 49.425V52.5375C51.4938 51.3375 54.4375 50.6812 57.8125 50.6812C59.4625 50.6812 61.0562 50.85 62.5 51.1687V48.3187C61.0188 48.0187 59.425 47.8687 57.8125 47.8687Z" fill="white"/>
</g>
<defs>
<filter id="filter0_d_1_46" x="0" y="0" width="95" height="95" filterUnits="userSpaceOnUse" color-interpolation-filters="sRGB">
<feFlood flood-opacity="0" result="BackgroundImageFix"/>
<feColorMatrix in="SourceAlpha" type="matrix" values="0 0 0 0 0 0 0 0 0 0 0 0 0 0 0 0 0 0 127 0" result="hardAlpha"/>
<feOffset dy="4"/>
<feGaussianBlur stdDeviation="7.5"/>
<feComposite in2="hardAlpha" operator="out"/>
<feColorMatrix type="matrix" values="0 0 0 0 1 0 0 0 0 0.541176 0 0 0 0 0 0 0 0 0.25 0"/>
<feBlend mode="normal" in2="BackgroundImageFix" result="effect1_dropShadow_1_46"/>
<feBlend mode="normal" in="SourceGraphic" in2="effect1_dropShadow_1_46" result="shape"/>
</filter>
<clipPath id="clip0_1_46">
<rect width="45" height="45" fill="white" transform="translate(25 21)"/>
</clipPath>
</defs>
</svg>
