<svg width="40" height="40" viewBox="0 0 40 40" fill="none" xmlns="http://www.w3.org/2000/svg">
<g clip-path="url(#clip0_1_32)">
<path d="M31.9 21.5667C31.9666 21.0667 32 20.55 32 20C32 19.4667 31.9666 18.9333 31.8833 18.4333L35.2666 15.8C35.5666 15.5667 35.65 15.1167 35.4666 14.7833L32.2666 9.25C32.0666 8.88333 31.65 8.76667 31.2833 8.88333L27.3 10.4833C26.4666 9.85 25.5833 9.31667 24.6 8.91667L24 4.68333C23.9333 4.28333 23.6 4 23.2 4L16.8 4C16.4 4 16.0833 4.28333 16.0166 4.68333L15.4166 8.91667C14.4333 9.31667 13.5333 9.86667 12.7166 10.4833L8.73331 8.88333C8.36665 8.75 7.94998 8.88333 7.74998 9.25L4.56665 14.7833C4.36665 15.1333 4.43331 15.5667 4.76665 15.8L8.14998 18.4333C8.06665 18.9333 7.99998 19.4833 7.99998 20C7.99998 20.5167 8.03331 21.0667 8.11665 21.5667L4.73331 24.2C4.43331 24.4333 4.34998 24.8833 4.53331 25.2167L7.73331 30.75C7.93331 31.1167 8.34998 31.2333 8.71665 31.1167L12.7 29.5167C13.5333 30.15 14.4166 30.6833 15.4 31.0833L16 35.3167C16.0833 35.7167 16.4 36 16.8 36H23.2C23.6 36 23.9333 35.7167 23.9833 35.3167L24.5833 31.0833C25.5666 30.6833 26.4666 30.15 27.2833 29.5167L31.2666 31.1167C31.6333 31.25 32.05 31.1167 32.25 30.75L35.45 25.2167C35.65 24.85 35.5666 24.4333 35.25 24.2L31.9 21.5667ZM20 26C16.7 26 14 23.3 14 20C14 16.7 16.7 14 20 14C23.3 14 26 16.7 26 20C26 23.3 23.3 26 20 26Z" fill="#B4BCCF"/>
</g>
<defs>
<clipPath id="clip0_1_32">
<rect width="40" height="40" fill="white"/>
</clipPath>
</defs>
</svg>
